<mxfile host="app.diagrams.net" agent="Mozilla/5.0 (Macintosh; Intel Mac OS X 10_15_7) AppleWebKit/537.36 (KHTML, like Gecko) Chrome/134.0.0.0 Safari/537.36" version="26.1.3">
  <diagram name="Page-1" id="SVVHcScpzuEiwNosNbUn">
    <mxGraphModel dx="2417" dy="2011" grid="1" gridSize="10" guides="1" tooltips="1" connect="1" arrows="1" fold="1" page="1" pageScale="1" pageWidth="827" pageHeight="1169" math="0" shadow="0">
      <root>
        <mxCell id="0" />
        <mxCell id="1" parent="0" />
        <mxCell id="7Wbq3VPm5mzOgFM5dk4m-1" style="edgeStyle=orthogonalEdgeStyle;rounded=0;orthogonalLoop=1;jettySize=auto;html=1;entryX=0.5;entryY=0;entryDx=0;entryDy=0;exitX=0.5;exitY=1;exitDx=0;exitDy=0;" parent="1" source="7Wbq3VPm5mzOgFM5dk4m-6" target="7Wbq3VPm5mzOgFM5dk4m-7" edge="1">
          <mxGeometry relative="1" as="geometry" />
        </mxCell>
        <mxCell id="7Wbq3VPm5mzOgFM5dk4m-2" style="edgeStyle=orthogonalEdgeStyle;rounded=0;orthogonalLoop=1;jettySize=auto;html=1;exitX=0.5;exitY=1;exitDx=0;exitDy=0;" parent="1" source="7Wbq3VPm5mzOgFM5dk4m-6" target="7Wbq3VPm5mzOgFM5dk4m-9" edge="1">
          <mxGeometry relative="1" as="geometry" />
        </mxCell>
        <mxCell id="7Wbq3VPm5mzOgFM5dk4m-3" style="edgeStyle=orthogonalEdgeStyle;rounded=0;orthogonalLoop=1;jettySize=auto;html=1;exitX=0.5;exitY=1;exitDx=0;exitDy=0;" parent="1" source="7Wbq3VPm5mzOgFM5dk4m-6" target="7Wbq3VPm5mzOgFM5dk4m-8" edge="1">
          <mxGeometry relative="1" as="geometry" />
        </mxCell>
        <mxCell id="7Wbq3VPm5mzOgFM5dk4m-4" style="edgeStyle=orthogonalEdgeStyle;rounded=0;orthogonalLoop=1;jettySize=auto;html=1;" parent="1" source="7Wbq3VPm5mzOgFM5dk4m-6" target="7Wbq3VPm5mzOgFM5dk4m-14" edge="1">
          <mxGeometry relative="1" as="geometry" />
        </mxCell>
        <mxCell id="7Wbq3VPm5mzOgFM5dk4m-5" style="edgeStyle=orthogonalEdgeStyle;rounded=0;orthogonalLoop=1;jettySize=auto;html=1;" parent="1" source="7Wbq3VPm5mzOgFM5dk4m-6" target="7Wbq3VPm5mzOgFM5dk4m-11" edge="1">
          <mxGeometry relative="1" as="geometry" />
        </mxCell>
        <mxCell id="7Wbq3VPm5mzOgFM5dk4m-6" value="/home" style="rounded=0;whiteSpace=wrap;html=1;fillColor=#dae8fc;strokeColor=#6c8ebf;" parent="1" vertex="1">
          <mxGeometry x="-80" y="-1080" width="120" height="40" as="geometry" />
        </mxCell>
        <mxCell id="7Wbq3VPm5mzOgFM5dk4m-7" value="/about" style="rounded=0;whiteSpace=wrap;html=1;fillColor=#dae8fc;strokeColor=#6c8ebf;" parent="1" vertex="1">
          <mxGeometry x="480" y="-960" width="120" height="40" as="geometry" />
        </mxCell>
        <mxCell id="7Wbq3VPm5mzOgFM5dk4m-8" value="/contact" style="rounded=0;whiteSpace=wrap;html=1;fillColor=#dae8fc;strokeColor=#6c8ebf;" parent="1" vertex="1">
          <mxGeometry x="320" y="-960" width="120" height="40" as="geometry" />
        </mxCell>
        <mxCell id="7Wbq3VPm5mzOgFM5dk4m-9" value="/legal" style="rounded=0;whiteSpace=wrap;html=1;fillColor=#dae8fc;strokeColor=#6c8ebf;" parent="1" vertex="1">
          <mxGeometry x="160" y="-960" width="120" height="40" as="geometry" />
        </mxCell>
        <mxCell id="7Wbq3VPm5mzOgFM5dk4m-10" style="edgeStyle=orthogonalEdgeStyle;rounded=0;orthogonalLoop=1;jettySize=auto;html=1;entryX=0.5;entryY=0;entryDx=0;entryDy=0;" parent="1" source="7Wbq3VPm5mzOgFM5dk4m-11" target="7Wbq3VPm5mzOgFM5dk4m-28" edge="1">
          <mxGeometry relative="1" as="geometry" />
        </mxCell>
        <mxCell id="7Wbq3VPm5mzOgFM5dk4m-11" value="/signin" style="rounded=0;whiteSpace=wrap;html=1;fillColor=#dae8fc;strokeColor=#6c8ebf;" parent="1" vertex="1">
          <mxGeometry y="-960" width="120" height="40" as="geometry" />
        </mxCell>
        <mxCell id="7Wbq3VPm5mzOgFM5dk4m-12" style="edgeStyle=orthogonalEdgeStyle;rounded=0;orthogonalLoop=1;jettySize=auto;html=1;entryX=1;entryY=0.75;entryDx=0;entryDy=0;exitX=0;exitY=0.75;exitDx=0;exitDy=0;fillColor=#dae8fc;strokeColor=#000000;" parent="1" source="7Wbq3VPm5mzOgFM5dk4m-14" target="7Wbq3VPm5mzOgFM5dk4m-16" edge="1">
          <mxGeometry relative="1" as="geometry" />
        </mxCell>
        <mxCell id="7Wbq3VPm5mzOgFM5dk4m-13" style="edgeStyle=orthogonalEdgeStyle;rounded=0;orthogonalLoop=1;jettySize=auto;html=1;" parent="1" source="7Wbq3VPm5mzOgFM5dk4m-14" target="7Wbq3VPm5mzOgFM5dk4m-28" edge="1">
          <mxGeometry relative="1" as="geometry" />
        </mxCell>
        <mxCell id="7Wbq3VPm5mzOgFM5dk4m-14" value="/login" style="rounded=0;whiteSpace=wrap;html=1;fillColor=#dae8fc;strokeColor=#6c8ebf;" parent="1" vertex="1">
          <mxGeometry x="-160" y="-960" width="120" height="40" as="geometry" />
        </mxCell>
        <mxCell id="7Wbq3VPm5mzOgFM5dk4m-15" style="edgeStyle=orthogonalEdgeStyle;rounded=0;orthogonalLoop=1;jettySize=auto;html=1;exitX=1;exitY=0.25;exitDx=0;exitDy=0;entryX=0;entryY=0.25;entryDx=0;entryDy=0;fillColor=#dae8fc;strokeColor=#000000;" parent="1" source="7Wbq3VPm5mzOgFM5dk4m-16" target="7Wbq3VPm5mzOgFM5dk4m-14" edge="1">
          <mxGeometry relative="1" as="geometry" />
        </mxCell>
        <mxCell id="7Wbq3VPm5mzOgFM5dk4m-16" value="/forgot" style="rounded=0;whiteSpace=wrap;html=1;fillColor=#dae8fc;strokeColor=#6c8ebf;" parent="1" vertex="1">
          <mxGeometry x="-320" y="-960" width="120" height="40" as="geometry" />
        </mxCell>
        <mxCell id="Hh5zYLbc0z2qDdy9gaOQ-41" style="edgeStyle=orthogonalEdgeStyle;rounded=0;orthogonalLoop=1;jettySize=auto;html=1;exitX=0.5;exitY=1;exitDx=0;exitDy=0;" edge="1" parent="1" source="7Wbq3VPm5mzOgFM5dk4m-28" target="7Wbq3VPm5mzOgFM5dk4m-29">
          <mxGeometry relative="1" as="geometry" />
        </mxCell>
        <mxCell id="Hh5zYLbc0z2qDdy9gaOQ-42" style="edgeStyle=orthogonalEdgeStyle;rounded=0;orthogonalLoop=1;jettySize=auto;html=1;exitX=0.5;exitY=1;exitDx=0;exitDy=0;" edge="1" parent="1" source="7Wbq3VPm5mzOgFM5dk4m-28" target="7Wbq3VPm5mzOgFM5dk4m-30">
          <mxGeometry relative="1" as="geometry" />
        </mxCell>
        <mxCell id="Hh5zYLbc0z2qDdy9gaOQ-43" style="edgeStyle=orthogonalEdgeStyle;rounded=0;orthogonalLoop=1;jettySize=auto;html=1;" edge="1" parent="1" source="7Wbq3VPm5mzOgFM5dk4m-28" target="7Wbq3VPm5mzOgFM5dk4m-32">
          <mxGeometry relative="1" as="geometry" />
        </mxCell>
        <mxCell id="Hh5zYLbc0z2qDdy9gaOQ-44" style="edgeStyle=orthogonalEdgeStyle;rounded=0;orthogonalLoop=1;jettySize=auto;html=1;exitX=0.5;exitY=1;exitDx=0;exitDy=0;" edge="1" parent="1" source="7Wbq3VPm5mzOgFM5dk4m-28" target="7Wbq3VPm5mzOgFM5dk4m-34">
          <mxGeometry relative="1" as="geometry" />
        </mxCell>
        <mxCell id="Hh5zYLbc0z2qDdy9gaOQ-45" style="edgeStyle=orthogonalEdgeStyle;rounded=0;orthogonalLoop=1;jettySize=auto;html=1;entryX=0.5;entryY=0;entryDx=0;entryDy=0;exitX=0.5;exitY=1;exitDx=0;exitDy=0;" edge="1" parent="1" source="7Wbq3VPm5mzOgFM5dk4m-28" target="7Wbq3VPm5mzOgFM5dk4m-35">
          <mxGeometry relative="1" as="geometry" />
        </mxCell>
        <mxCell id="Hh5zYLbc0z2qDdy9gaOQ-46" style="edgeStyle=orthogonalEdgeStyle;rounded=0;orthogonalLoop=1;jettySize=auto;html=1;entryX=0.5;entryY=0;entryDx=0;entryDy=0;exitX=0.5;exitY=1;exitDx=0;exitDy=0;" edge="1" parent="1" source="7Wbq3VPm5mzOgFM5dk4m-28" target="7Wbq3VPm5mzOgFM5dk4m-36">
          <mxGeometry relative="1" as="geometry" />
        </mxCell>
        <mxCell id="7Wbq3VPm5mzOgFM5dk4m-28" value="/home" style="rounded=0;whiteSpace=wrap;html=1;fillColor=#f8cecc;strokeColor=#b85450;" parent="1" vertex="1">
          <mxGeometry x="-80" y="-840" width="120" height="40" as="geometry" />
        </mxCell>
        <mxCell id="7Wbq3VPm5mzOgFM5dk4m-29" value="/packages" style="rounded=0;whiteSpace=wrap;html=1;fillColor=#f8cecc;strokeColor=#b85450;" parent="1" vertex="1">
          <mxGeometry x="-680" y="-680" width="120" height="40" as="geometry" />
        </mxCell>
        <mxCell id="7Wbq3VPm5mzOgFM5dk4m-30" value="/presta" style="rounded=0;whiteSpace=wrap;html=1;fillColor=#f8cecc;strokeColor=#b85450;" parent="1" vertex="1">
          <mxGeometry x="-440" y="-680" width="120" height="40" as="geometry" />
        </mxCell>
        <mxCell id="7Wbq3VPm5mzOgFM5dk4m-32" value="/disputes" style="rounded=0;whiteSpace=wrap;html=1;fillColor=#f8cecc;strokeColor=#b85450;" parent="1" vertex="1">
          <mxGeometry x="-200" y="-680" width="120" height="40" as="geometry" />
        </mxCell>
        <mxCell id="7Wbq3VPm5mzOgFM5dk4m-34" value="/payments" style="rounded=0;whiteSpace=wrap;html=1;fillColor=#f8cecc;strokeColor=#b85450;" parent="1" vertex="1">
          <mxGeometry x="40" y="-680" width="120" height="40" as="geometry" />
        </mxCell>
        <mxCell id="7Wbq3VPm5mzOgFM5dk4m-35" value="/messages" style="rounded=0;whiteSpace=wrap;html=1;fillColor=#f8cecc;strokeColor=#b85450;" parent="1" vertex="1">
          <mxGeometry x="280" y="-680" width="120" height="40" as="geometry" />
        </mxCell>
        <mxCell id="7Wbq3VPm5mzOgFM5dk4m-36" value="/account" style="rounded=0;whiteSpace=wrap;html=1;fillColor=#f8cecc;strokeColor=#b85450;" parent="1" vertex="1">
          <mxGeometry x="520" y="-680" width="120" height="40" as="geometry" />
        </mxCell>
        <mxCell id="Hh5zYLbc0z2qDdy9gaOQ-52" value="&lt;span style=&quot;&quot;&gt;-&amp;nbsp;&lt;/span&gt;&lt;span style=&quot;font-size: 10px;&quot;&gt;déposer une annonces de demande livraison de son colis&lt;/span&gt;&lt;div style=&quot;&quot;&gt;&lt;span style=&quot;font-size: 10px;&quot;&gt;-&amp;nbsp;&lt;/span&gt;&lt;span style=&quot;font-size: 10px; background-color: transparent; color: light-dark(rgb(0, 0, 0), rgb(255, 255, 255));&quot;&gt;consulter ses annonces (en attente, acceptée, refusée, terminée)&lt;/span&gt;&lt;/div&gt;&lt;div style=&quot;&quot;&gt;&lt;span style=&quot;font-size: 10px; background-color: transparent; color: light-dark(rgb(0, 0, 0), rgb(255, 255, 255));&quot;&gt;-&amp;nbsp;&lt;/span&gt;&lt;span style=&quot;font-size: 10px; background-color: transparent; color: light-dark(rgb(0, 0, 0), rgb(255, 255, 255));&quot;&gt;modifier ou supprimer une annonce au statuts en attente&lt;/span&gt;&lt;/div&gt;&lt;div style=&quot;&quot;&gt;&lt;span style=&quot;font-size: 10px; background-color: transparent; color: light-dark(rgb(0, 0, 0), rgb(255, 255, 255));&quot;&gt;-&amp;nbsp;&lt;/span&gt;&lt;font style=&quot;background-color: transparent; color: light-dark(rgb(0, 0, 0), rgb(255, 255, 255)); font-size: 10px;&quot;&gt;suivre son colis pour une annonce acceptée&lt;/font&gt;&lt;/div&gt;&lt;div style=&quot;&quot;&gt;&lt;span style=&quot;background-color: transparent; color: light-dark(rgb(0, 0, 0), rgb(255, 255, 255)); font-size: 10px;&quot;&gt;-&amp;nbsp;&lt;/span&gt;&lt;span style=&quot;background-color: transparent; color: light-dark(rgb(0, 0, 0), rgb(255, 255, 255)); font-size: 10px;&quot;&gt;contacter le livreur d&#39;une annonce acceptée&amp;nbsp;&lt;/span&gt;&lt;/div&gt;&lt;div style=&quot;&quot;&gt;&lt;span style=&quot;background-color: transparent; color: light-dark(rgb(0, 0, 0), rgb(255, 255, 255)); font-size: 10px;&quot;&gt;-&amp;nbsp;&lt;/span&gt;&lt;span style=&quot;font-size: 10px; background-color: transparent; color: light-dark(rgb(0, 0, 0), rgb(255, 255, 255));&quot;&gt;entamer un litige pour une commande acceptée ou terminée&lt;/span&gt;&lt;/div&gt;&lt;div style=&quot;&quot;&gt;&lt;span style=&quot;font-size: 10px; background-color: transparent; color: light-dark(rgb(0, 0, 0), rgb(255, 255, 255));&quot;&gt;-&amp;nbsp;&lt;/span&gt;&lt;span style=&quot;font-size: 10px; background-color: transparent; color: light-dark(rgb(0, 0, 0), rgb(255, 255, 255));&quot;&gt;donner son avis sur le livreur pour une commande terminée&lt;/span&gt;&lt;/div&gt;&lt;div style=&quot;&quot;&gt;&lt;span style=&quot;font-size: 10px; background-color: transparent; color: light-dark(rgb(0, 0, 0), rgb(255, 255, 255));&quot;&gt;-&amp;nbsp;&lt;/span&gt;&lt;font style=&quot;background-color: transparent; color: light-dark(rgb(0, 0, 0), rgb(255, 255, 255)); font-size: 10px;&quot;&gt;scanner la carte NFC d&#39;un livreur pour authentification à l&#39;envoi&lt;/font&gt;&lt;span style=&quot;background-color: transparent; color: light-dark(rgb(0, 0, 0), rgb(255, 255, 255)); font-size: 10px;&quot;&gt;e (only mobile)&lt;/span&gt;&lt;/div&gt;" style="whiteSpace=wrap;html=1;align=left;spacingLeft=4;fillColor=#d5e8d4;strokeColor=#82b366;" vertex="1" parent="1">
          <mxGeometry x="-730" y="-630" width="220" height="210" as="geometry" />
        </mxCell>
        <mxCell id="Hh5zYLbc0z2qDdy9gaOQ-53" value="&lt;span style=&quot;&quot;&gt;-&amp;nbsp;&lt;/span&gt;&lt;span style=&quot;font-size: 10px;&quot;&gt;consulter les annonces de prestation de service&lt;/span&gt;&lt;div style=&quot;&quot;&gt;&lt;span style=&quot;font-size: 10px;&quot;&gt;-&amp;nbsp;&lt;/span&gt;&lt;span style=&quot;font-size: 10px; background-color: transparent; color: light-dark(rgb(0, 0, 0), rgb(255, 255, 255));&quot;&gt;déposer une demande de prestation&lt;/span&gt;&lt;/div&gt;&lt;div style=&quot;&quot;&gt;&lt;span style=&quot;font-size: 10px; background-color: transparent; color: light-dark(rgb(0, 0, 0), rgb(255, 255, 255));&quot;&gt;-&amp;nbsp;&lt;/span&gt;&lt;span style=&quot;font-size: 10px; background-color: transparent; color: light-dark(rgb(0, 0, 0), rgb(255, 255, 255));&quot;&gt;consulter ses demandes (en attente, acceptée, refusée, annulée)&lt;/span&gt;&lt;/div&gt;&lt;div style=&quot;&quot;&gt;&lt;span style=&quot;font-size: 10px; background-color: transparent; color: light-dark(rgb(0, 0, 0), rgb(255, 255, 255));&quot;&gt;-&amp;nbsp;&lt;/span&gt;&lt;span style=&quot;font-size: 10px; background-color: transparent; color: light-dark(rgb(0, 0, 0), rgb(255, 255, 255));&quot;&gt;modifier ou supprimer une demande au statuts en attente&lt;/span&gt;&lt;/div&gt;&lt;div style=&quot;&quot;&gt;&lt;span style=&quot;background-color: transparent; color: light-dark(rgb(0, 0, 0), rgb(255, 255, 255)); font-size: 10px;&quot;&gt;-&amp;nbsp;&lt;/span&gt;&lt;span style=&quot;font-size: 10px; background-color: transparent; color: light-dark(rgb(0, 0, 0), rgb(255, 255, 255));&quot;&gt;consulter ses prestations acceptée et terminée&lt;/span&gt;&lt;/div&gt;&lt;div style=&quot;&quot;&gt;&lt;span style=&quot;background-color: transparent; color: light-dark(rgb(0, 0, 0), rgb(255, 255, 255)); font-size: 10px;&quot;&gt;-&amp;nbsp;&lt;/span&gt;&lt;span style=&quot;background-color: transparent; color: light-dark(rgb(0, 0, 0), rgb(255, 255, 255)); font-size: 10px;&quot;&gt;contacter le prestataire d&#39;une&amp;nbsp;&lt;/span&gt;&lt;span style=&quot;background-color: transparent; color: light-dark(rgb(0, 0, 0), rgb(255, 255, 255)); font-size: 10px;&quot;&gt;annonce&lt;/span&gt;&lt;/div&gt;&lt;div style=&quot;&quot;&gt;&lt;span style=&quot;background-color: transparent; color: light-dark(rgb(0, 0, 0), rgb(255, 255, 255)); font-size: 10px;&quot;&gt;acceptée&lt;/span&gt;&lt;/div&gt;&lt;div style=&quot;&quot;&gt;&lt;span style=&quot;font-size: 10px; background-color: transparent; color: light-dark(rgb(0, 0, 0), rgb(255, 255, 255));&quot;&gt;-&amp;nbsp;&lt;/span&gt;&lt;span style=&quot;font-size: 10px; background-color: transparent; color: light-dark(rgb(0, 0, 0), rgb(255, 255, 255));&quot;&gt;entamer un litige pour une prestation acceptée ou terminée&lt;/span&gt;&lt;/div&gt;&lt;div style=&quot;&quot;&gt;&lt;span style=&quot;font-size: 10px; background-color: transparent; color: light-dark(rgb(0, 0, 0), rgb(255, 255, 255));&quot;&gt;-&amp;nbsp;&lt;/span&gt;&lt;span style=&quot;background-color: transparent; color: light-dark(rgb(0, 0, 0), rgb(255, 255, 255)); font-size: 10px;&quot;&gt;donner son avis sur une&amp;nbsp;&lt;/span&gt;&lt;span style=&quot;background-color: transparent; color: light-dark(rgb(0, 0, 0), rgb(255, 255, 255)); font-size: 10px;&quot;&gt;prestation&amp;nbsp;&lt;/span&gt;&lt;span style=&quot;background-color: transparent; color: light-dark(rgb(0, 0, 0), rgb(255, 255, 255)); font-size: 10px;&quot;&gt;terminée&lt;/span&gt;&lt;/div&gt;" style="whiteSpace=wrap;html=1;align=left;spacingLeft=4;fillColor=#d5e8d4;strokeColor=#82b366;" vertex="1" parent="1">
          <mxGeometry x="-490" y="-630" width="220" height="210" as="geometry" />
        </mxCell>
        <mxCell id="Hh5zYLbc0z2qDdy9gaOQ-54" value="" style="whiteSpace=wrap;html=1;align=left;spacingLeft=4;fillColor=#d5e8d4;strokeColor=#82b366;" vertex="1" parent="1">
          <mxGeometry x="-250" y="-630" width="220" height="210" as="geometry" />
        </mxCell>
        <mxCell id="Hh5zYLbc0z2qDdy9gaOQ-55" value="" style="whiteSpace=wrap;html=1;align=left;spacingLeft=4;fillColor=#d5e8d4;strokeColor=#82b366;" vertex="1" parent="1">
          <mxGeometry x="-10" y="-630" width="220" height="210" as="geometry" />
        </mxCell>
        <mxCell id="Hh5zYLbc0z2qDdy9gaOQ-56" value="" style="whiteSpace=wrap;html=1;align=left;spacingLeft=4;fillColor=#d5e8d4;strokeColor=#82b366;" vertex="1" parent="1">
          <mxGeometry x="230" y="-630" width="220" height="210" as="geometry" />
        </mxCell>
        <mxCell id="Hh5zYLbc0z2qDdy9gaOQ-57" value="" style="whiteSpace=wrap;html=1;align=left;spacingLeft=4;fillColor=#d5e8d4;strokeColor=#82b366;" vertex="1" parent="1">
          <mxGeometry x="470" y="-630" width="220" height="210" as="geometry" />
        </mxCell>
      </root>
    </mxGraphModel>
  </diagram>
</mxfile>
